<mxfile host="app.diagrams.net" agent="Mozilla/5.0 (Android 10; Mobile; rv:137.0) Gecko/137.0 Firefox/137.0" version="26.2.14">
  <diagram name="Page-1" id="JIkCCi1TmwmwrDooL_ef">
    <mxGraphModel>
      <root>
        <mxCell id="0" />
        <mxCell id="1" parent="0" />
      </root>
    </mxGraphModel>
  </diagram>
</mxfile>
